# xmcd
#
# Track frame offsets: 
#        150
#        17044
#        30076
#        51329
#        68389
#        91583
#        111644
#        125289
#        144313
#        156503
#        184079
#
# Disc length: 2659 seconds
#
# Revision: 3
# Processed by: cddbd v1.5.2PL0 Copyright (c) Steve Scherf et al.
# Submitted via: ExactAudioCopy v1.3
#
DISCID=870a610b
DTITLE=Popo Romano - Otra Mañana
DYEAR=2005
DGENRE=Jazz
TTITLE0=Nuevo Noviembre
TTITLE1=Otra Mañana
TTITLE2=No Todavía
TTITLE3=Tapas Azules
TTITLE4=Fin De Octubre
TTITLE5=Falla El Robot
TTITLE6=Ese Lugar
TTITLE7=Prince Gabriel
TTITLE8=Patricios
TTITLE9=Entrevero
TTITLE10=En La Sombra De Tu Vela
EXTD=YEAR: 2005
EXTT0=
EXTT1=
EXTT2=
EXTT3=
EXTT4=
EXTT5=
EXTT6=
EXTT7=
EXTT8=
EXTT9=
EXTT10=
PLAYORDER=
